<svg width="1078" height="99" viewBox="0 0 1078 99" fill="none" xmlns="http://www.w3.org/2000/svg">
<path d="M85.4 25.544C81.304 22.472 76.312 20.936 71.064 20.936H9.88L1.048 81.992C0.152 87.88 4.76 93 10.52 93H22.424C27.288 93 31.256 89.544 32.024 84.808L35.224 62.28H50.84C55.576 62.28 59.416 66.376 58.776 71.112C58.648 71.112 57.112 81.992 57.112 81.992C56.344 87.88 60.824 93 66.712 93H79.128C83.864 93 87.96 89.544 88.6 84.808L91.288 66.76C91.416 61.768 87.704 57.928 82.584 57.928C87.96 57.928 92.952 53.704 93.848 48.328L94.104 46.92C95.256 38.856 92.056 30.792 85.4 25.544ZM62.616 44.232L62.232 47.048C61.592 50.76 58.392 53.576 54.552 53.576H36.504L38.296 40.52C39.192 34.632 44.44 30.024 50.456 30.024C51.096 30.024 51.608 30.152 52.248 30.152C58.904 31.176 63.512 37.448 62.616 44.232ZM182.885 52.552C178.917 47.944 173.157 45.256 167.013 45.256H127.333C120.677 45.256 114.149 47.688 109.157 52.04C104.165 56.392 100.837 62.408 99.941 69.064C99.045 75.08 100.837 81.224 104.805 85.832C108.773 90.44 114.661 93 120.805 93H160.485C167.141 93 173.541 90.696 178.661 86.344C180.197 84.936 181.605 83.4 182.885 81.736H153.189C151.013 84.168 147.813 85.832 144.357 85.832H142.053C138.597 85.832 135.397 84.296 133.221 81.736C131.173 79.432 130.149 76.36 130.405 73.416L131.813 62.536C132.709 56.904 137.701 52.552 143.461 52.552H145.765C149.093 52.552 152.421 53.96 154.597 56.648C156.645 58.952 157.669 61.896 157.413 64.968H148.965L149.093 64.712C149.349 62.664 147.813 60.872 145.765 60.872H143.461C141.797 60.872 140.389 62.152 140.133 63.816L138.725 73.672C138.469 75.592 140.005 77.384 142.053 77.384H144.357C146.021 77.384 147.429 76.232 147.685 74.568L147.813 73.416H186.981C187.365 72.008 187.621 70.728 187.877 69.32C188.773 63.304 186.981 57.16 182.885 52.552ZM250.077 46.536C249.309 45.64 248.157 45 246.749 44.872C240.733 44.36 224.349 38.728 218.845 20.936H217.693C212.957 20.936 208.861 24.392 208.221 29.128L205.917 44.872H195.677C193.629 44.872 191.709 46.28 191.325 48.328C191.069 50.12 191.837 51.4 192.349 51.912C192.733 52.424 193.757 53.448 195.421 53.448L204.637 53.832L203.229 63.432C202.205 70.856 204.381 78.408 209.373 84.168C214.237 89.8 221.405 93 228.957 93H235.357C240.349 93 244.701 89.416 245.341 84.424C243.293 83.272 241.373 81.864 239.837 80.072C236.125 75.848 234.333 70.216 234.973 64.584L236.637 53.448H246.621C248.669 53.448 250.589 52.04 250.973 49.992C251.229 48.328 250.589 47.304 250.077 46.536ZM337.15 53.192C332.798 48.2 326.526 45.256 319.87 45.256C305.918 45.256 309.886 45.256 299.902 45.256C293.118 46.024 286.846 48.968 282.238 53.576L283.39 45.384C276.478 46.152 269.95 48.84 264.702 53.448C258.686 58.696 254.718 65.992 253.566 73.928L252.414 81.992C252.03 84.808 252.798 87.624 254.718 89.672C256.51 91.848 259.07 93 262.014 93H274.43C279.166 93 283.262 89.544 283.902 84.808L287.102 63.048C287.87 57.032 293.118 52.552 299.134 52.552C302.718 52.552 306.046 54.088 308.478 56.776C310.782 59.464 311.806 63.048 311.294 66.504L310.91 69.064H342.654C342.91 63.304 340.99 57.544 337.15 53.192ZM430.135 52.552C426.167 47.944 420.407 45.256 414.263 45.256H374.583C367.927 45.256 361.399 47.688 356.407 52.04C351.415 56.392 348.087 62.408 347.191 69.064C346.295 75.08 348.087 81.224 352.055 85.832C356.023 90.44 361.911 93 368.055 93H407.735C414.391 93 420.791 90.696 425.911 86.344C430.903 81.992 434.231 75.976 435.127 69.32C436.023 63.304 434.231 57.16 430.135 52.552ZM404.535 65.864L403.127 75.72C402.359 81.48 397.367 85.832 391.607 85.832H389.303C385.847 85.832 382.647 84.296 380.471 81.736C378.167 79.176 377.143 75.848 377.655 72.392L379.063 62.536C379.959 56.904 384.951 52.552 390.711 52.552H393.015C396.343 52.552 399.671 53.96 401.847 56.648C404.023 59.208 405.047 62.536 404.535 65.864ZM491.12 98.376H496.496C497.392 92.872 499.824 86.856 503.92 80.328C512.112 67.4 528.624 54.728 542.832 51.784V46.408C535.792 44.872 528.88 41.672 522.224 36.936C508.656 27.336 498.672 13 496.496 0.0719986H491.12C489.84 6.856 486.896 13.384 482.288 20.04C473.2 33.224 458.992 42.952 444.528 46.408V51.784C451.824 53.32 459.248 56.904 466.544 62.408C481.392 73.544 489.2 87.368 491.12 98.376ZM611.327 45.256H643.199C643.583 39.24 641.663 33.352 637.695 28.744C633.343 23.752 627.071 20.936 620.415 20.936H582.655C575.999 20.936 569.599 23.24 564.607 27.592C559.487 31.944 556.287 37.96 555.263 44.616L552.063 67.016C551.167 73.544 553.087 80.2 557.439 85.192C561.791 90.184 568.063 93 574.719 93H612.351C619.007 93 625.407 90.696 630.527 86.344C635.263 82.248 638.335 76.744 639.487 70.6L641.919 53.576H593.791L590.975 73.032C590.719 75.336 592.511 77.512 594.815 77.512C596.863 77.512 598.399 75.976 598.783 74.056L600.447 62.28H608.895L606.975 75.336C606.079 81.352 600.959 85.832 594.815 85.832C591.359 85.832 587.903 84.296 585.599 81.608C583.295 78.92 582.271 75.336 582.783 71.752L587.263 40.52C588.031 34.632 593.279 30.024 599.295 30.024C602.879 30.024 606.335 31.56 608.639 34.248C610.943 36.936 611.967 40.52 611.455 44.104L611.327 45.256ZM675.708 45.256C669.052 45.256 662.524 47.688 657.532 52.04C652.54 56.392 649.212 62.408 648.316 69.064C647.42 75.08 649.212 81.224 653.18 85.832C657.148 90.44 663.036 93 669.18 93H688.508C695.164 92.36 701.308 89.288 705.916 84.808L704.636 93H732.796L739.708 45.256H675.708ZM706.3 62.152L704.252 75.72C703.484 81.48 698.492 85.832 692.732 85.832H690.428C686.972 85.832 683.772 84.296 681.596 81.736C679.292 79.176 678.268 75.848 678.78 72.392L680.188 62.536C681.084 56.904 686.076 52.552 691.836 52.552H707.58L706.3 62.152ZM886.524 53.064C882.172 48.072 876.028 45.256 869.5 45.256H749.692L744.444 81.992C744.06 84.808 744.828 87.624 746.748 89.672C748.54 91.848 751.1 93 754.044 93H766.46C771.196 93 775.292 89.544 775.932 84.808L780.54 52.552H787.836C792.572 52.552 797.052 54.6 800.124 58.184C803.196 61.64 804.604 66.376 803.836 71.112L802.3 81.992C801.916 84.808 802.684 87.624 804.604 89.672C806.396 91.848 809.084 93 811.9 93H823.42C828.156 93 832.252 89.544 832.892 84.808L837.628 52.424L845.052 52.552C849.66 52.68 854.012 54.728 857.084 58.312C860.028 61.768 861.436 66.504 860.668 71.112L859.132 81.992C858.748 84.808 859.516 87.624 861.436 89.672C863.228 91.848 865.916 93 868.732 93H880.252C884.988 93 889.084 89.544 889.724 84.808L891.772 70.984C892.668 64.584 890.748 57.928 886.524 53.064ZM981.385 52.552C977.417 47.944 971.657 45.256 965.513 45.256H925.833C919.177 45.256 912.649 47.688 907.657 52.04C902.665 56.392 899.337 62.408 898.441 69.064C897.545 75.08 899.337 81.224 903.305 85.832C907.273 90.44 913.161 93 919.305 93H958.985C965.641 93 972.041 90.696 977.161 86.344C978.697 84.936 980.105 83.4 981.385 81.736H951.689C949.513 84.168 946.313 85.832 942.857 85.832H940.553C937.097 85.832 933.897 84.296 931.721 81.736C929.673 79.432 928.649 76.36 928.905 73.416L930.313 62.536C931.209 56.904 936.201 52.552 941.961 52.552H944.265C947.593 52.552 950.921 53.96 953.097 56.648C955.145 58.952 956.169 61.896 955.913 64.968H947.465L947.593 64.712C947.849 62.664 946.313 60.872 944.265 60.872H941.961C940.297 60.872 938.889 62.152 938.633 63.816L937.225 73.672C936.969 75.592 938.505 77.384 940.553 77.384H942.857C944.521 77.384 945.929 76.232 946.185 74.568L946.313 73.416H985.481C985.865 72.008 986.121 70.728 986.377 69.32C987.273 63.304 985.481 57.16 981.385 52.552ZM1075.01 50.76C1071.17 47.304 1066.18 45.256 1060.81 45.256H1021.12C1014.47 45.256 1008.07 47.688 1002.95 52.04C997.957 56.392 994.629 62.408 993.733 69.064C993.733 69.064 993.733 69.064 993.733 69.192H1023.56L1022.92 73.416C1022.79 74.696 1023.17 75.976 1024.07 77C1024.84 78.024 1026.12 78.536 1027.4 78.536H1029.06C1031.37 78.536 1033.16 76.872 1033.54 74.696L1034.18 70.344H1042.12L1041.35 75.72C1040.45 81.48 1035.46 85.832 1029.7 85.832H1027.4C1023.94 85.832 1020.74 84.296 1018.57 81.736C1017.41 80.456 1016.65 79.048 1016.26 77.512H995.909C992.197 77.512 990.789 80.456 990.405 81.224C990.021 82.376 989.381 85.192 991.941 87.496C995.781 91.08 1000.77 93 1006.15 93H1045.83C1052.49 93 1059.01 90.696 1064.01 86.344C1069 81.992 1072.33 75.976 1073.22 69.32V69.192H1043.4L1044.04 64.84C1044.17 63.56 1043.78 62.28 1042.89 61.384C1042.12 60.36 1040.84 59.72 1039.56 59.72H1037.25C1035.08 59.72 1033.16 61.384 1032.77 63.56L1032.13 68.04H1024.84L1025.61 62.536C1026.5 56.904 1031.49 52.552 1037.25 52.552H1039.56C1043.01 52.552 1046.21 53.96 1048.39 56.648C1049.54 57.8 1050.31 59.336 1050.69 60.872H1071.05C1074.76 60.872 1076.17 57.928 1076.55 57.032C1076.93 56.008 1077.57 53.192 1075.01 50.76Z" fill="black"/>
</svg>
